<svg xmlns="http://www.w3.org/2000/svg" viewBox="0 0 680 200" fill="none">
  <rect width="680" height="200" rx="16" fill="#0d1117"/>
  <defs><pattern id="g" width="40" height="40" patternUnits="userSpaceOnUse"><path d="M40 0L0 0 0 40" fill="none" stroke="#161b22" stroke-width="1"/></pattern></defs>
  <rect width="680" height="200" fill="url(#g)"/>
  <g transform="translate(40,40)">
    <rect width="120" height="120" rx="16" fill="#1a2332" stroke="#9945ff" stroke-width="2.5"/>
    <path d="M24 40 L96 40 L86 52 L14 52Z" fill="#9945ff" opacity="0.8"/>
    <path d="M14 58 L86 58 L96 70 L24 70Z" fill="#14f195" opacity="0.6"/>
    <path d="M24 76 L96 76 L86 88 L14 88Z" fill="#9945ff" opacity="0.4"/>
    <circle cx="85" cy="100" r="8" fill="none" stroke="#e6edf3" stroke-width="1.5" opacity="0.4"/>
    <path d="M80 100 L85 95 L90 100" stroke="#14f195" stroke-width="1.5" fill="none" opacity="0.6"/>
  </g>
  <text x="195" y="72" font-family="'Segoe UI',system-ui,sans-serif" font-size="40" fill="#e6edf3" font-weight="700" letter-spacing="-1">Solana Monitor</text>
  <text x="195" y="118" font-family="'Segoe UI',system-ui,sans-serif" font-size="40" fill="#9945ff" font-weight="700" letter-spacing="-1">Toolkit</text>
  <text x="197" y="148" font-family="'Segoe UI',system-ui,sans-serif" font-size="14" fill="#7d8590">&#x533A;&#x5757;&#x94FE;&#x76D1;&#x63A7; | &#x94B1;&#x5305;&#x751F;&#x6210; | &#x81EA;&#x52A8;&#x5316;&#x5DE5;&#x5177;</text>
  <g transform="translate(197,162)">
    <rect width="66" height="22" rx="11" fill="#1a2332" stroke="#9945ff" stroke-width="1"/>
    <text x="33" y="15" font-family="monospace" font-size="10" fill="#9945ff" text-anchor="middle">Python</text>
    <rect x="76" width="66" height="22" rx="11" fill="#1a2332" stroke="#14f195" stroke-width="1"/>
    <text x="109" y="15" font-family="monospace" font-size="10" fill="#14f195" text-anchor="middle">Solana</text>
    <rect x="152" width="78" height="22" rx="11" fill="#1a2332" stroke="#58a6ff" stroke-width="1"/>
    <text x="191" y="15" font-family="monospace" font-size="10" fill="#58a6ff" text-anchor="middle">Solders</text>
  </g>
</svg>