<svg xmlns="http://www.w3.org/2000/svg" viewBox="0 0 680 180" fill="none">
  <rect width="680" height="180" rx="16" fill="#0d1117"/>
  <defs><pattern id="g" width="40" height="40" patternUnits="userSpaceOnUse"><path d="M40 0L0 0 0 40" fill="none" stroke="#161b22" stroke-width="1"/></pattern></defs>
  <rect width="680" height="180" fill="url(#g)"/>
  <g transform="translate(30,50)">
    <rect width="80" height="80" rx="14" fill="#1a2332" stroke="#9945ff" stroke-width="2"/>
    <path d="M16 24 L64 24 L58 32 L10 32Z" fill="#9945ff" opacity="0.8"/>
    <path d="M10 37 L58 37 L64 45 L16 45Z" fill="#14f195" opacity="0.6"/>
    <path d="M16 50 L64 50 L58 58 L10 58Z" fill="#9945ff" opacity="0.4"/>
  </g>
  <text x="135" y="76" font-family="'Segoe UI',system-ui,sans-serif" font-size="38" fill="#e6edf3" font-weight="700" letter-spacing="-1">Solana Monitor Toolkit</text>
  <text x="137" y="104" font-family="'Segoe UI',system-ui,sans-serif" font-size="14" fill="#7d8590">&#x806a;&#x660e;&#x94b1;&#x76d1;&#x63a7; | Telegram &#x9884;&#x8b66; | &#x6280;&#x672f;&#x6307;&#x6807;</text>
  <g transform="translate(137,116)">
    <rect width="66" height="22" rx="11" fill="#1a2332" stroke="#9945ff" stroke-width="1"/>
    <text x="33" y="15" font-family="monospace" font-size="10" fill="#9945ff" text-anchor="middle">Python</text>
    <rect x="76" width="66" height="22" rx="11" fill="#1a2332" stroke="#14f195" stroke-width="1"/>
    <text x="109" y="15" font-family="monospace" font-size="10" fill="#14f195" text-anchor="middle">Solana</text>
    <rect x="152" width="82" height="22" rx="11" fill="#1a2332" stroke="#58a6ff" stroke-width="1"/>
    <text x="193" y="15" font-family="monospace" font-size="10" fill="#58a6ff" text-anchor="middle">Telegram</text>
  </g>
</svg>